<svg width="2012" height="1696" viewBox="0 0 2012 1696" fill="none" xmlns="http://www.w3.org/2000/svg">
<path d="M2010.98 1.05017C2010.98 1.05017 19.2886 204.626 0.892585 989.895C-9.95362 1452.89 382.836 1695.14 841.858 1695.14C1135.81 1695.14 1512.53 1510.45 1512.53 1231.43C1512.53 1024.16 1397.1 846.836 1176.73 846.836C999.716 846.58 842.193 922.363 842.193 1078.71C842.193 1165.84 886.302 1230.34 950.072 1230.38C999.102 1230.41 1041.89 1195.23 1041.89 1138.56M961.615 1078.71C1007.79 1078.71 1041.89 1085.18 1041.89 1138.56M1041.89 1138.56C1041.89 1085.18 973.158 1098.68 928.561 1092.91M1041.89 1138.56C1041.89 1085.18 968.961 1126.49 921.74 1121.24M1041.89 1138.56C1041.89 1085.18 946.4 1155.87 900.228 1155.87M1041.89 1138.56C1041.89 1085.18 932.758 1186.83 890.784 1180.01" stroke="#E7E7E7" stroke-opacity="0.3" stroke-linecap="round" stroke-dasharray="5 5"/>
</svg>
