<svg width="81" height="81" viewBox="0 0 81 81" fill="none" xmlns="http://www.w3.org/2000/svg">
<rect x="0.454346" y="0.56958" width="80" height="80" rx="40" fill="#FFF42B"/>
<rect x="0.954346" y="1.06958" width="79" height="79" rx="39.5" stroke="#E7E7E7" stroke-opacity="0.3"/>
<path d="M34.7017 30.5696L23.7577 50.5696H13.7877L22.333 34.9527C23.6577 32.5321 26.9634 30.5696 29.7167 30.5696H34.7017ZM59.151 35.5696C59.151 32.8082 61.3827 30.5696 64.136 30.5696C66.8892 30.5696 69.121 32.8082 69.121 35.5696C69.121 38.3309 66.8892 40.5696 64.136 40.5696C61.3827 40.5696 59.151 38.3309 59.151 35.5696ZM36.5709 30.5696H46.541L35.5973 50.5696H25.6273L36.5709 30.5696ZM48.3465 30.5696H58.3165L49.7711 46.1864C48.4465 48.6075 45.1408 50.5696 42.3875 50.5696H37.4025L48.3465 30.5696Z" fill="black"/>
</svg>
