<svg width="1917" height="1616" viewBox="0 0 1917 1616" fill="none" xmlns="http://www.w3.org/2000/svg">
<path d="M1916.45 0.56958C1916.45 0.56958 18.4543 194.57 0.923723 942.9C-9.41228 1384.11 364.9 1614.97 802.33 1614.97C1082.45 1614.97 1441.45 1438.97 1441.45 1173.07C1441.45 975.557 1331.45 806.57 1121.45 806.57C952.762 806.326 802.649 878.544 802.649 1027.54C802.649 1110.57 844.684 1172.03 905.454 1172.07C952.178 1172.1 992.954 1138.57 992.954 1084.57M916.454 1027.54C960.454 1027.54 992.954 1033.7 992.954 1084.57M992.954 1084.57C992.954 1033.7 927.454 1046.57 884.954 1041.07M992.954 1084.57C992.954 1033.7 923.454 1073.07 878.454 1068.07M992.954 1084.57C992.954 1033.7 901.954 1101.07 857.954 1101.07M992.954 1084.57C992.954 1033.7 888.954 1130.57 848.954 1124.07" stroke="#E7E7E7" stroke-opacity="0.3" stroke-linecap="round" stroke-dasharray="5 5"/>
</svg>
