<svg width="610" height="73" viewBox="0 0 610 73" fill="none" xmlns="http://www.w3.org/2000/svg">
<rect x="0.5" y="0.5" width="609" height="72" rx="17.5" fill="#161616" stroke="#474747"/>
<rect x="10" y="8.5882" width="190" height="55.8235" rx="15" fill="#E7E7E7"/>
<rect x="210" y="8.5882" width="190" height="55.8235" rx="15" fill="#161616"/>
<rect x="410" y="8.5882" width="190" height="55.8235" rx="15" fill="#161616"/>
<g clip-path="url(#clip0_108_218)">
<path d="M517.238 23.6258C513.991 18.9793 507.58 17.6022 502.944 20.5557L494.802 25.745C493.702 26.437 492.759 27.3508 492.032 28.4281C491.305 29.5054 490.812 30.7224 490.582 32.0014C490.194 34.1558 490.535 36.3782 491.552 38.3168C490.855 39.374 490.38 40.5615 490.155 41.8076C489.923 43.1124 489.954 44.4503 490.246 45.743C490.538 47.0356 491.085 48.257 491.855 49.3353C495.102 53.9823 501.514 55.3589 506.149 52.4053L514.291 47.2163C515.391 46.5244 516.335 45.6106 517.061 44.5333C517.788 43.4559 518.282 42.2388 518.511 40.9598C518.899 38.8054 518.558 36.583 517.542 34.6442C518.238 33.587 518.713 32.3995 518.938 31.1535C519.17 29.8488 519.139 28.5108 518.848 27.2181C518.556 25.9255 518.008 24.7041 517.238 23.6258Z" fill="#FF3E00"/>
<path d="M502.148 49.7774C499.523 50.46 496.75 49.4324 495.204 47.2038C494.741 46.555 494.412 45.8203 494.236 45.0427C494.06 44.2651 494.042 43.4603 494.181 42.6754C494.228 42.4176 494.294 42.1635 494.376 41.9148L494.529 41.4472L494.946 41.7536C495.91 42.4616 496.988 42.9999 498.132 43.3454L498.435 43.4372L498.407 43.7393C498.37 44.1691 498.486 44.5981 498.736 44.9502C498.963 45.278 499.285 45.5282 499.659 45.667C500.033 45.8057 500.44 45.8264 500.826 45.7261C501.003 45.6788 501.172 45.6047 501.326 45.5063L509.471 40.3163C509.67 40.1908 509.841 40.0252 509.973 39.83C510.105 39.6348 510.194 39.4143 510.236 39.1825C510.278 38.9459 510.272 38.7034 510.219 38.4691C510.166 38.2347 510.067 38.0133 509.928 37.8176C509.7 37.4898 509.378 37.2397 509.004 37.1008C508.63 36.962 508.222 36.9412 507.836 37.0413C507.66 37.0886 507.491 37.1627 507.337 37.2609L504.229 39.2421C503.718 39.567 503.16 39.8119 502.575 39.9683C499.95 40.6509 497.178 39.6233 495.632 37.3946C495.168 36.7459 494.839 36.0112 494.663 35.2336C494.488 34.456 494.469 33.6512 494.609 32.8663C494.747 32.0969 495.044 31.3649 495.481 30.7169C495.918 30.069 496.486 29.5194 497.147 29.1033L505.291 23.9127C505.802 23.5873 506.36 23.3421 506.946 23.1857C509.571 22.5031 512.343 23.5307 513.889 25.7593C514.352 26.408 514.682 27.1427 514.857 27.9204C515.033 28.698 515.052 29.5028 514.912 30.2877C514.865 30.5453 514.8 30.7994 514.718 31.0482L514.564 31.5159L514.147 31.2099C513.184 30.5015 512.106 29.963 510.961 29.6175L510.658 29.5256L510.686 29.2235C510.723 28.7938 510.607 28.3649 510.358 28.0126C510.131 27.6848 509.809 27.4346 509.435 27.2959C509.061 27.1571 508.653 27.1364 508.267 27.2367C508.09 27.2841 507.922 27.3582 507.767 27.4566L499.623 32.6468C499.423 32.7722 499.252 32.9378 499.121 33.133C498.989 33.3281 498.9 33.5486 498.858 33.7804C498.816 34.0169 498.821 34.2595 498.874 34.4939C498.927 34.7282 499.026 34.9497 499.166 35.1454C499.393 35.4731 499.715 35.7233 500.089 35.8621C500.463 36.001 500.871 36.0218 501.257 35.9217C501.434 35.8744 501.603 35.8002 501.757 35.7018L504.865 33.7215C505.376 33.3962 505.933 33.151 506.518 32.9946C509.143 32.3121 511.916 33.3397 513.462 35.5684C513.925 36.2171 514.254 36.9517 514.43 37.7293C514.606 38.5069 514.624 39.3117 514.485 40.0966C514.347 40.866 514.05 41.5981 513.613 42.2462C513.175 42.8943 512.608 43.444 511.946 43.8602L503.803 49.0504C503.291 49.3758 502.733 49.621 502.148 49.7774Z" fill="white"/>
</g>
<path d="M321.065 24.8353L319.871 43.584L308.456 19L321.065 24.8353ZM313.158 49.0783L304.533 54L295.907 49.0783L297.661 44.8266H311.404L313.158 49.0783ZM304.533 28.3317L309.052 39.3202H300.013L304.533 28.3317ZM289.182 43.584L288 24.8353L300.61 19L289.182 43.584Z" fill="url(#paint0_linear_108_218)"/>
<path d="M321.065 24.8353L319.871 43.584L308.456 19L321.065 24.8353ZM313.158 49.0783L304.533 54L295.907 49.0783L297.661 44.8266H311.404L313.158 49.0783ZM304.533 28.3317L309.052 39.3202H300.013L304.533 28.3317ZM289.182 43.584L288 24.8353L300.61 19L289.182 43.584Z" fill="url(#paint1_linear_108_218)"/>
<g clip-path="url(#clip1_108_218)">
<mask id="mask0_108_218" style="mask-type:luminance" maskUnits="userSpaceOnUse" x="87" y="19" width="35" height="35">
<path d="M104.5 54C114.165 54 122 46.165 122 36.5C122 26.835 114.165 19 104.5 19C94.835 19 87 26.835 87 36.5C87 46.165 94.835 54 104.5 54Z" fill="white"/>
</mask>
<g mask="url(#mask0_108_218)">
<path d="M104.5 54C114.165 54 122 46.165 122 36.5C122 26.835 114.165 19 104.5 19C94.835 19 87 26.835 87 36.5C87 46.165 94.835 54 104.5 54Z" fill="black"/>
<path d="M116.071 49.6288L100.444 29.5H97.5V43.4941H99.8554V32.4914L114.222 51.0532C114.869 50.6201 115.487 50.1442 116.071 49.6288Z" fill="url(#paint2_linear_108_218)"/>
<path d="M109.361 29.5H111.694V43.5H109.361V29.5Z" fill="url(#paint3_linear_108_218)"/>
</g>
</g>
<defs>
<linearGradient id="paint0_linear_108_218" x1="1116.97" y1="3201.51" x2="3518.75" y2="2060.17" gradientUnits="userSpaceOnUse">
<stop stop-color="#E40035"/>
<stop offset="0.24" stop-color="#F60A48"/>
<stop offset="0.352" stop-color="#F20755"/>
<stop offset="0.494" stop-color="#DC087D"/>
<stop offset="0.745" stop-color="#9717E7"/>
<stop offset="1" stop-color="#6C00F5"/>
</linearGradient>
<linearGradient id="paint1_linear_108_218" x1="1010.9" y1="441.03" x2="2653.3" y2="2314.53" gradientUnits="userSpaceOnUse">
<stop stop-color="#FF31D9"/>
<stop offset="1" stop-color="#FF5BE1" stop-opacity="0"/>
</linearGradient>
<linearGradient id="paint2_linear_108_218" x1="1130.66" y1="1244.78" x2="1750.83" y2="2013.44" gradientUnits="userSpaceOnUse">
<stop stop-color="white"/>
<stop offset="1" stop-color="white" stop-opacity="0"/>
</linearGradient>
<linearGradient id="paint3_linear_108_218" x1="226.03" y1="29.5" x2="222.082" y2="1057.62" gradientUnits="userSpaceOnUse">
<stop stop-color="white"/>
<stop offset="1" stop-color="white" stop-opacity="0"/>
</linearGradient>
<clipPath id="clip0_108_218">
<rect width="29.0938" height="35" fill="white" transform="translate(490 19)"/>
</clipPath>
<clipPath id="clip1_108_218">
<rect width="35" height="35" fill="white" transform="translate(87 19)"/>
</clipPath>
</defs>
</svg>
