<svg xmlns="http://www.w3.org/2000/svg" fill="none" viewBox="410 13.27 1086.74 169.32">
<path d="M1307.69 90.11L1331.48 72.3H1285.85V51.5H1367.62V68.4L1334.08 92.71H1335.25C1341.36 92.71 1346.56 93.36 1350.72 94.53C1354.88 95.7 1358.13 97.26 1360.73 99.21C1363.2 101.16 1365.02 103.37 1366.06 105.97C1367.1 108.57 1367.75 111.3 1367.75 114.16V123.65C1367.75 132.23 1364.5 138.6 1358.26 142.76C1351.89 146.92 1342.53 149 1330.31 149H1287.8V128.2H1333.69C1336.42 128.2 1338.37 127.81 1339.67 126.77C1340.97 125.73 1341.62 123.78 1341.62 120.79V117.28C1341.62 114.42 1340.84 112.47 1339.54 111.56C1338.24 110.65 1336.29 110.13 1333.95 110.13H1309.9C1306.52 110.13 1304.05 109.35 1302.36 107.53C1300.54 105.84 1299.76 103.63 1299.76 100.9C1299.76 98.69 1300.41 96.74 1301.84 95.18C1303.27 93.62 1305.22 91.93 1307.69 90.11ZM1457.3 128.59V149H1376.83V133.14C1376.83 128.98 1377.22 125.34 1378.13 121.96C1378.91 118.71 1380.47 115.72 1382.68 112.86C1384.76 110 1387.62 107.27 1391.26 104.67C1394.9 102.07 1399.45 99.21 1404.91 96.35L1425.58 85.56C1427.79 84.52 1429.35 83.35 1430.39 82.31C1431.3 81.27 1431.82 79.84 1431.82 78.15C1431.82 75.81 1430.91 74.12 1429.35 73.21C1427.66 72.43 1425.45 71.91 1422.72 71.91H1378.91V51.5H1424.93C1436.5 51.5 1444.95 53.71 1450.41 57.87C1455.74 62.03 1458.47 67.75 1458.47 75.03C1458.47 79.19 1457.82 82.7 1456.65 85.56C1455.35 88.55 1453.53 91.15 1451.19 93.49C1448.85 95.83 1445.86 98.17 1442.48 100.25C1438.97 102.33 1434.94 104.67 1430.52 107.01L1411.67 117.28C1408.68 118.84 1406.73 120.27 1405.95 121.57C1405.17 122.87 1404.78 124.43 1404.78 125.99V128.59H1457.3ZM1464.1 149V137H1478.34C1480.16 137 1481.48 137.44 1482.3 138.32C1483.1 139.2 1483.52 140.4 1483.52 141.9V149H1479.72V141.8C1479.72 141.2 1479.6 140.76 1479.4 140.5C1479.2 140.24 1478.8 140.1 1478.22 140.1H1475.7V149H1471.9V140.1H1467.9V149H1464.1ZM1492.46 144.8L1489.2 144.16C1488 143.92 1487.08 143.5 1486.44 142.9C1485.8 142.3 1485.5 141.5 1485.5 140.5C1485.5 140.04 1485.58 139.6 1485.76 139.16C1485.94 138.74 1486.22 138.36 1486.6 138.04C1486.98 137.72 1487.46 137.48 1488.06 137.28C1488.66 137.1 1489.36 137 1490.18 137H1496.14V139.9H1489.88C1489.48 139.9 1489.2 139.96 1489.08 140.08C1488.94 140.2 1488.88 140.34 1488.88 140.48C1488.88 140.64 1488.94 140.78 1489.06 140.9C1489.18 141.02 1489.38 141.12 1489.68 141.16L1492.64 141.74C1494.1 142.04 1495.14 142.48 1495.78 143.06C1496.42 143.64 1496.74 144.4 1496.74 145.36C1496.74 146.44 1496.32 147.32 1495.5 148C1494.68 148.68 1493.44 149 1491.78 149H1485.9V146.1H1492.42C1492.84 146.1 1493.12 146.04 1493.24 145.92C1493.36 145.8 1493.44 145.66 1493.44 145.46C1493.44 145.26 1493.34 145.12 1493.16 145.02C1492.98 144.94 1492.74 144.86 1492.46 144.8Z" fill="#474747"/>
<g filter="url(#filter0_dddddd_321_501)">
<rect x="410" y="50" width="10" height="100" rx="2" fill="#DF52A9"/>
</g>
<g filter="url(#filter1_dddddd_321_501)">
<rect x="440" y="50" width="10" height="100" rx="2" fill="#DF52A9"/>
</g>
<g filter="url(#filter2_dddddd_321_501)">
<rect x="470" y="50" width="10" height="100" rx="2" fill="#DF52A9"/>
</g>
<g filter="url(#filter3_dddddd_321_501)">
<rect x="500" y="50" width="10" height="100" rx="2" fill="#DF52A9"/>
</g>
<g filter="url(#filter4_dddddd_321_501)">
<rect x="530" y="50" width="10" height="100" rx="2" fill="#DF52A9"/>
</g>
<g filter="url(#filter5_dddddd_321_501)">
<rect x="560" y="50" width="10" height="100" rx="2" fill="#DF52A9"/>
</g>
<g filter="url(#filter6_dddddd_321_501)">
<rect x="590" y="50" width="10" height="100" rx="2" fill="#DF52A9"/>
</g>
<g filter="url(#filter7_dddddd_321_501)">
<rect x="620" y="50" width="10" height="100" rx="2" fill="#DF52A9"/>
</g>
<g filter="url(#filter8_dddddd_321_501)">
<rect x="650" y="50" width="10" height="100" rx="2" fill="#DF52A9"/>
</g>
<rect x="680" y="50" width="10" height="100" rx="2" fill="#7D3C64"/>
<rect x="710" y="50" width="10" height="100" rx="2" fill="#7D3C64"/>
<rect x="740" y="50" width="10" height="100" rx="2" fill="#7D3C64"/>
<rect x="770" y="50" width="10" height="100" rx="2" fill="#7D3C64"/>
<rect x="800" y="50" width="10" height="100" rx="2" fill="#7D3C64"/>
<rect x="830" y="50" width="10" height="100" rx="2" fill="#7D3C64"/>
<rect x="860" y="50" width="10" height="100" rx="2" fill="#7D3C64"/>
<rect x="890" y="50" width="10" height="100" rx="2" fill="#7D3C64"/>
<rect x="920" y="50" width="10" height="100" rx="2" fill="#7D3C64"/>
<rect x="950" y="50" width="10" height="100" rx="2" fill="#7D3C64"/>
<rect x="980" y="50" width="10" height="100" rx="2" fill="#7D3C64"/>
<rect x="1010" y="50" width="10" height="100" rx="2" fill="#7D3C64"/>
<rect x="1040" y="50" width="10" height="100" rx="2" fill="#7D3C64"/>
<rect x="1070" y="50" width="10" height="100" rx="2" fill="#7D3C64"/>
<rect x="1100" y="50" width="10" height="100" rx="2" fill="#7D3C64"/>
<rect x="1130" y="50" width="10" height="100" rx="2" fill="#7D3C64"/>
<rect x="1160" y="50" width="10" height="100" rx="2" fill="#7D3C64"/>
<rect x="1190" y="50" width="10" height="100" rx="2" fill="#7D3C64"/>
<rect x="1220" y="50" width="10" height="100" rx="2" fill="#7D3C64"/>
<rect x="1250" y="50" width="10" height="100" rx="2" fill="#7D3C64"/>
<path d="M423.706 18.506C423.706 19.342 423.545 20.0753 423.222 20.706C422.899 21.3367 422.459 21.8647 421.902 22.29C421.359 22.7153 420.721 23.038 419.988 23.258C419.255 23.4633 418.477 23.566 417.656 23.566H413.916V29H412.178V13.6H417.942C418.807 13.6 419.592 13.7173 420.296 13.952C421.015 14.172 421.623 14.4947 422.122 14.92C422.635 15.3307 423.024 15.844 423.288 16.46C423.567 17.0613 423.706 17.7433 423.706 18.506ZM421.946 18.572C421.946 17.4573 421.565 16.6213 420.802 16.064C420.054 15.492 419.057 15.206 417.81 15.206H413.916V21.982H417.722C418.353 21.982 418.925 21.9013 419.438 21.74C419.966 21.5787 420.413 21.3513 420.78 21.058C421.161 20.75 421.447 20.3907 421.638 19.98C421.843 19.5547 421.946 19.0853 421.946 18.572ZM428.567 15.14H426.631V13.27H428.567V15.14ZM428.435 29H426.741V17.626H428.435V29ZM434.061 22.488V29H432.367V17.626H434.061V19.606C434.442 18.99 434.941 18.4693 435.557 18.044C436.173 17.604 436.972 17.384 437.955 17.384C438.644 17.384 439.253 17.494 439.781 17.714C440.323 17.934 440.778 18.2493 441.145 18.66C441.526 19.056 441.812 19.5327 442.003 20.09C442.208 20.6473 442.311 21.2633 442.311 21.938V29H440.617V22.356C440.617 21.3 440.345 20.464 439.803 19.848C439.26 19.232 438.483 18.924 437.471 18.924C436.987 18.924 436.532 19.012 436.107 19.188C435.696 19.3493 435.337 19.5913 435.029 19.914C434.721 20.222 434.479 20.596 434.303 21.036C434.141 21.476 434.061 21.96 434.061 22.488ZM456.747 27.02C456.747 27.944 456.608 28.7507 456.329 29.44C456.065 30.1293 455.677 30.7013 455.163 31.156C454.665 31.6253 454.056 31.9773 453.337 32.212C452.633 32.4467 451.841 32.564 450.961 32.564C450.008 32.564 449.099 32.432 448.233 32.168C447.368 31.904 446.554 31.508 445.791 30.98L446.561 29.66C447.221 30.1293 447.911 30.4887 448.629 30.738C449.348 30.9873 450.118 31.112 450.939 31.112C452.201 31.112 453.205 30.7673 453.953 30.078C454.701 29.4033 455.075 28.3987 455.075 27.064V25.722C454.577 26.382 453.968 26.9467 453.249 27.416C452.531 27.8853 451.651 28.12 450.609 28.12C449.92 28.12 449.253 28.0027 448.607 27.768C447.977 27.5187 447.412 27.1667 446.913 26.712C446.415 26.2427 446.011 25.678 445.703 25.018C445.41 24.358 445.263 23.61 445.263 22.774C445.263 21.938 445.41 21.19 445.703 20.53C446.011 19.8553 446.415 19.2907 446.913 18.836C447.412 18.3667 447.984 18.0073 448.629 17.758C449.275 17.5087 449.935 17.384 450.609 17.384C451.137 17.384 451.621 17.45 452.061 17.582C452.516 17.6993 452.919 17.8607 453.271 18.066C453.638 18.2713 453.968 18.5133 454.261 18.792C454.555 19.0707 454.819 19.364 455.053 19.672V17.626H456.747V27.02ZM455.119 22.752C455.119 22.1653 455.002 21.6373 454.767 21.168C454.533 20.684 454.217 20.2733 453.821 19.936C453.44 19.5987 453 19.342 452.501 19.166C452.003 18.9753 451.482 18.88 450.939 18.88C450.397 18.88 449.883 18.968 449.399 19.144C448.93 19.32 448.512 19.5767 448.145 19.914C447.793 20.2513 447.515 20.662 447.309 21.146C447.104 21.6153 447.001 22.1433 447.001 22.73C447.001 23.3167 447.104 23.852 447.309 24.336C447.529 24.8053 447.815 25.216 448.167 25.568C448.534 25.9053 448.952 26.1693 449.421 26.36C449.905 26.536 450.411 26.624 450.939 26.624C451.482 26.624 452.003 26.536 452.501 26.36C453 26.1693 453.44 25.9053 453.821 25.568C454.217 25.2307 454.533 24.8273 454.767 24.358C455.002 23.874 455.119 23.3387 455.119 22.752Z" fill="#474747"/>
<path d="M1202.93 14.788L1206.69 13.49H1207.97V29H1206.25V15.294L1203.35 16.196L1202.93 14.788ZM1224.57 21.278C1224.57 22.3633 1224.41 23.39 1224.1 24.358C1223.8 25.326 1223.36 26.1767 1222.78 26.91C1222.23 27.6287 1221.54 28.2007 1220.74 28.626C1219.93 29.0513 1219.04 29.264 1218.05 29.264C1217.06 29.264 1216.15 29.0587 1215.35 28.648C1214.56 28.2227 1213.87 27.6507 1213.3 26.932C1212.74 26.1987 1212.31 25.3553 1212 24.402C1211.71 23.434 1211.56 22.4073 1211.56 21.322C1211.56 20.2367 1211.72 19.21 1212.03 18.242C1212.33 17.274 1212.77 16.4307 1213.32 15.712C1213.9 14.9787 1214.58 14.3993 1215.39 13.974C1216.2 13.5487 1217.1 13.336 1218.1 13.336C1219.08 13.336 1219.97 13.5487 1220.76 13.974C1221.57 14.3847 1222.25 14.9567 1222.81 15.69C1223.38 16.4087 1223.81 17.252 1224.1 18.22C1224.41 19.1733 1224.57 20.1927 1224.57 21.278ZM1222.76 21.322C1222.76 20.4713 1222.65 19.6647 1222.43 18.902C1222.21 18.1247 1221.9 17.4427 1221.49 16.856C1221.07 16.2693 1220.58 15.8 1219.99 15.448C1219.42 15.096 1218.77 14.92 1218.05 14.92C1217.33 14.92 1216.68 15.096 1216.1 15.448C1215.52 15.7853 1215.03 16.2473 1214.62 16.834C1214.23 17.406 1213.92 18.0807 1213.7 18.858C1213.48 19.6207 1213.37 20.4273 1213.37 21.278C1213.37 22.1287 1213.48 22.9427 1213.7 23.72C1213.92 24.4973 1214.23 25.1793 1214.64 25.766C1215.05 26.3527 1215.55 26.822 1216.14 27.174C1216.73 27.5113 1217.38 27.68 1218.1 27.68C1218.82 27.68 1219.46 27.5113 1220.03 27.174C1220.62 26.822 1221.11 26.36 1221.51 25.788C1221.92 25.2013 1222.23 24.5267 1222.43 23.764C1222.65 22.9867 1222.76 22.1727 1222.76 21.322ZM1240.29 21.278C1240.29 22.3633 1240.14 23.39 1239.83 24.358C1239.52 25.326 1239.08 26.1767 1238.51 26.91C1237.95 27.6287 1237.27 28.2007 1236.46 28.626C1235.66 29.0513 1234.76 29.264 1233.78 29.264C1232.78 29.264 1231.88 29.0587 1231.07 28.648C1230.28 28.2227 1229.6 27.6507 1229.03 26.932C1228.47 26.1987 1228.04 25.3553 1227.73 24.402C1227.44 23.434 1227.29 22.4073 1227.29 21.322C1227.29 20.2367 1227.44 19.21 1227.75 18.242C1228.06 17.274 1228.49 16.4307 1229.05 15.712C1229.62 14.9787 1230.31 14.3993 1231.12 13.974C1231.92 13.5487 1232.83 13.336 1233.82 13.336C1234.81 13.336 1235.69 13.5487 1236.49 13.974C1237.29 14.3847 1237.97 14.9567 1238.53 15.69C1239.1 16.4087 1239.54 17.252 1239.83 18.22C1240.14 19.1733 1240.29 20.1927 1240.29 21.278ZM1238.49 21.322C1238.49 20.4713 1238.38 19.6647 1238.16 18.902C1237.94 18.1247 1237.62 17.4427 1237.21 16.856C1236.8 16.2693 1236.3 15.8 1235.72 15.448C1235.14 15.096 1234.5 14.92 1233.78 14.92C1233.06 14.92 1232.41 15.096 1231.82 15.448C1231.25 15.7853 1230.76 16.2473 1230.35 16.834C1229.95 17.406 1229.64 18.0807 1229.42 18.858C1229.2 19.6207 1229.09 20.4273 1229.09 21.278C1229.09 22.1287 1229.2 22.9427 1229.42 23.72C1229.64 24.4973 1229.96 25.1793 1230.37 25.766C1230.78 26.3527 1231.28 26.822 1231.87 27.174C1232.45 27.5113 1233.11 27.68 1233.82 27.68C1234.54 27.68 1235.19 27.5113 1235.76 27.174C1236.35 26.822 1236.84 26.36 1237.23 25.788C1237.64 25.2013 1237.95 24.5267 1238.16 23.764C1238.38 22.9867 1238.49 22.1727 1238.49 21.322ZM1249.77 17.34C1249.77 17.868 1249.68 18.374 1249.51 18.858C1249.35 19.3273 1249.11 19.7453 1248.8 20.112C1248.49 20.4787 1248.13 20.772 1247.7 20.992C1247.28 21.1973 1246.8 21.3 1246.27 21.3C1245.74 21.3 1245.27 21.1973 1244.84 20.992C1244.42 20.772 1244.05 20.486 1243.74 20.134C1243.45 19.7673 1243.21 19.3493 1243.04 18.88C1242.88 18.4107 1242.8 17.912 1242.8 17.384C1242.8 16.856 1242.88 16.3573 1243.04 15.888C1243.21 15.404 1243.46 14.9787 1243.76 14.612C1244.07 14.2453 1244.44 13.9593 1244.86 13.754C1245.3 13.534 1245.79 13.424 1246.32 13.424C1246.83 13.424 1247.3 13.534 1247.72 13.754C1248.15 13.9593 1248.51 14.2453 1248.8 14.612C1249.11 14.964 1249.35 15.3747 1249.51 15.844C1249.68 16.3133 1249.77 16.812 1249.77 17.34ZM1257.25 13.6L1245.96 29H1244.38L1255.69 13.6H1257.25ZM1258.83 25.216C1258.83 25.744 1258.75 26.25 1258.57 26.734C1258.41 27.2033 1258.17 27.6213 1257.87 27.988C1257.57 28.3547 1257.21 28.648 1256.77 28.868C1256.34 29.0733 1255.86 29.176 1255.34 29.176C1254.82 29.176 1254.35 29.0733 1253.93 28.868C1253.5 28.648 1253.14 28.362 1252.83 28.01C1252.54 27.6433 1252.3 27.2253 1252.12 26.756C1251.96 26.2867 1251.88 25.788 1251.88 25.26C1251.88 24.732 1251.96 24.2333 1252.12 23.764C1252.3 23.28 1252.54 22.8547 1252.85 22.488C1253.16 22.1213 1253.53 21.8353 1253.95 21.63C1254.38 21.41 1254.85 21.3 1255.38 21.3C1255.91 21.3 1256.39 21.41 1256.81 21.63C1257.24 21.8353 1257.6 22.1213 1257.89 22.488C1258.2 22.84 1258.43 23.2507 1258.59 23.72C1258.75 24.1893 1258.83 24.688 1258.83 25.216ZM1248.32 17.384C1248.32 16.988 1248.26 16.6287 1248.14 16.306C1248.04 15.9687 1247.89 15.6827 1247.7 15.448C1247.53 15.1987 1247.31 15.008 1247.06 14.876C1246.82 14.7293 1246.55 14.656 1246.27 14.656C1245.96 14.656 1245.69 14.7293 1245.44 14.876C1245.2 15.008 1245 15.1987 1244.82 15.448C1244.64 15.6827 1244.51 15.9687 1244.4 16.306C1244.31 16.6287 1244.27 16.9733 1244.27 17.34C1244.27 17.736 1244.32 18.1027 1244.42 18.44C1244.53 18.7627 1244.67 19.0487 1244.86 19.298C1245.06 19.5327 1245.27 19.7233 1245.5 19.87C1245.75 20.002 1246.02 20.068 1246.32 20.068C1246.61 20.068 1246.88 20.002 1247.13 19.87C1247.38 19.7233 1247.59 19.5327 1247.77 19.298C1247.94 19.0487 1248.08 18.7627 1248.16 18.44C1248.27 18.1173 1248.32 17.7653 1248.32 17.384ZM1257.38 25.26C1257.38 24.864 1257.33 24.5047 1257.23 24.182C1257.13 23.8447 1256.98 23.5587 1256.79 23.324C1256.6 23.0747 1256.38 22.884 1256.13 22.752C1255.88 22.6053 1255.62 22.532 1255.34 22.532C1255.04 22.532 1254.77 22.6053 1254.52 22.752C1254.27 22.884 1254.06 23.0747 1253.88 23.324C1253.71 23.5587 1253.57 23.8447 1253.47 24.182C1253.38 24.5047 1253.33 24.8493 1253.33 25.216C1253.33 25.612 1253.39 25.9787 1253.49 26.316C1253.59 26.6387 1253.74 26.9247 1253.93 27.174C1254.12 27.4087 1254.33 27.5993 1254.57 27.746C1254.82 27.878 1255.09 27.944 1255.38 27.944C1255.69 27.944 1255.96 27.878 1256.19 27.746C1256.44 27.5993 1256.66 27.4087 1256.83 27.174C1257.01 26.9247 1257.14 26.6387 1257.23 26.316C1257.33 25.9933 1257.38 25.6413 1257.38 25.26Z" fill="#474747"/>
<path d="M1202.39 165.206V179H1200.63V165.206H1195.46V163.6H1207.56V165.206H1202.39ZM1218.91 173.302C1218.91 174.109 1218.75 174.879 1218.44 175.612C1218.15 176.331 1217.74 176.961 1217.21 177.504C1216.68 178.047 1216.05 178.479 1215.32 178.802C1214.59 179.11 1213.79 179.264 1212.94 179.264C1212.09 179.264 1211.31 179.11 1210.59 178.802C1209.87 178.479 1209.25 178.054 1208.72 177.526C1208.19 176.983 1207.78 176.353 1207.49 175.634C1207.19 174.915 1207.05 174.153 1207.05 173.346C1207.05 172.539 1207.19 171.777 1207.49 171.058C1207.78 170.325 1208.19 169.687 1208.72 169.144C1209.25 168.601 1209.87 168.176 1210.59 167.868C1211.32 167.545 1212.12 167.384 1212.99 167.384C1213.84 167.384 1214.62 167.545 1215.34 167.868C1216.07 168.176 1216.71 168.601 1217.23 169.144C1217.76 169.672 1218.17 170.295 1218.47 171.014C1218.76 171.733 1218.91 172.495 1218.91 173.302ZM1217.17 173.346C1217.17 172.73 1217.06 172.151 1216.84 171.608C1216.63 171.065 1216.34 170.596 1215.96 170.2C1215.58 169.789 1215.13 169.467 1214.62 169.232C1214.1 168.997 1213.54 168.88 1212.94 168.88C1212.33 168.88 1211.76 168.997 1211.25 169.232C1210.74 169.452 1210.3 169.767 1209.93 170.178C1209.58 170.574 1209.3 171.043 1209.09 171.586C1208.89 172.114 1208.79 172.686 1208.79 173.302C1208.79 173.918 1208.89 174.497 1209.09 175.04C1209.31 175.583 1209.61 176.052 1209.97 176.448C1210.35 176.844 1210.8 177.159 1211.32 177.394C1211.83 177.629 1212.39 177.746 1212.99 177.746C1213.6 177.746 1214.17 177.636 1214.68 177.416C1215.19 177.181 1215.63 176.866 1216 176.47C1216.37 176.074 1216.65 175.612 1216.86 175.084C1217.06 174.541 1217.17 173.962 1217.17 173.346ZM1232.8 179H1231.1V176.712C1230.87 177.049 1230.61 177.372 1230.31 177.68C1230.03 177.988 1229.72 178.259 1229.37 178.494C1229.01 178.729 1228.62 178.912 1228.18 179.044C1227.75 179.176 1227.28 179.242 1226.75 179.242C1226.06 179.242 1225.39 179.11 1224.75 178.846C1224.1 178.582 1223.52 178.201 1223.01 177.702C1222.49 177.189 1222.08 176.565 1221.78 175.832C1221.47 175.099 1221.31 174.263 1221.31 173.324C1221.31 172.385 1221.47 171.549 1221.78 170.816C1222.08 170.083 1222.49 169.467 1223.01 168.968C1223.52 168.455 1224.1 168.066 1224.75 167.802C1225.39 167.523 1226.06 167.384 1226.75 167.384C1227.28 167.384 1227.76 167.45 1228.2 167.582C1228.64 167.714 1229.04 167.89 1229.39 168.11C1229.74 168.33 1230.06 168.587 1230.33 168.88C1230.63 169.173 1230.88 169.481 1231.1 169.804V162.94H1232.8V179ZM1231.17 173.302C1231.17 172.642 1231.05 172.041 1230.82 171.498C1230.6 170.955 1230.29 170.493 1229.89 170.112C1229.51 169.731 1229.07 169.437 1228.57 169.232C1228.09 169.012 1227.58 168.902 1227.06 168.902C1226.5 168.902 1225.98 169.005 1225.49 169.21C1225.01 169.401 1224.58 169.687 1224.22 170.068C1223.87 170.435 1223.58 170.897 1223.36 171.454C1223.15 171.997 1223.05 172.613 1223.05 173.302C1223.05 173.977 1223.15 174.585 1223.36 175.128C1223.58 175.671 1223.87 176.14 1224.24 176.536C1224.61 176.917 1225.03 177.211 1225.52 177.416C1226 177.621 1226.51 177.724 1227.06 177.724C1227.58 177.724 1228.09 177.621 1228.57 177.416C1229.07 177.196 1229.51 176.895 1229.89 176.514C1230.29 176.133 1230.6 175.671 1230.82 175.128C1231.05 174.571 1231.17 173.962 1231.17 173.302ZM1240.7 168.968C1240.02 168.968 1239.41 169.049 1238.85 169.21C1238.31 169.357 1237.77 169.555 1237.24 169.804L1236.74 168.418C1237.37 168.125 1238.01 167.897 1238.65 167.736C1239.3 167.56 1240.04 167.472 1240.87 167.472C1242.43 167.472 1243.62 167.861 1244.46 168.638C1245.3 169.401 1245.71 170.537 1245.71 172.048V179H1244.09V177.284C1243.69 177.797 1243.15 178.252 1242.48 178.648C1241.82 179.044 1240.98 179.242 1239.97 179.242C1239.44 179.242 1238.92 179.169 1238.41 179.022C1237.91 178.875 1237.46 178.655 1237.05 178.362C1236.65 178.054 1236.33 177.68 1236.08 177.24C1235.84 176.8 1235.73 176.279 1235.73 175.678C1235.73 175.077 1235.84 174.549 1236.08 174.094C1236.31 173.625 1236.64 173.236 1237.07 172.928C1237.51 172.62 1238.02 172.385 1238.61 172.224C1239.21 172.063 1239.87 171.982 1240.59 171.982C1241.32 171.982 1241.96 172.026 1242.5 172.114C1243.04 172.202 1243.57 172.319 1244.09 172.466V172.07C1244.09 171.043 1243.78 170.273 1243.18 169.76C1242.6 169.232 1241.77 168.968 1240.7 168.968ZM1240.76 173.236C1239.69 173.236 1238.87 173.449 1238.3 173.874C1237.73 174.299 1237.44 174.879 1237.44 175.612C1237.44 175.979 1237.51 176.301 1237.66 176.58C1237.82 176.859 1238.04 177.101 1238.3 177.306C1238.56 177.497 1238.86 177.643 1239.2 177.746C1239.55 177.849 1239.92 177.9 1240.3 177.9C1240.83 177.9 1241.32 177.827 1241.78 177.68C1242.24 177.519 1242.65 177.306 1242.99 177.042C1243.34 176.763 1243.61 176.441 1243.8 176.074C1244 175.693 1244.11 175.275 1244.11 174.82V173.72C1243.68 173.603 1243.19 173.493 1242.63 173.39C1242.09 173.287 1241.47 173.236 1240.76 173.236ZM1259.21 167.626L1254.44 179.374C1253.95 180.547 1253.41 181.376 1252.81 181.86C1252.22 182.344 1251.5 182.586 1250.65 182.586C1250.18 182.586 1249.76 182.535 1249.38 182.432C1249 182.344 1248.62 182.205 1248.23 182.014L1248.81 180.672C1249.08 180.819 1249.36 180.921 1249.62 180.98C1249.9 181.053 1250.22 181.09 1250.59 181.09C1251.1 181.09 1251.53 180.936 1251.89 180.628C1252.24 180.32 1252.58 179.763 1252.92 178.956L1247.75 167.626H1249.62L1253.76 177.108L1257.41 167.626H1259.21Z" fill="#474747"/>
<path d="M419.658 163.49H421.176V173.896H423.574V175.348H421.176V179H419.504V175.348H411.386L410.946 174.094L419.658 163.49ZM419.504 173.896V165.954L413.036 173.896H419.504ZM426.938 171.102L427.378 163.6H436.244V165.206H428.896L428.566 170.134C429.02 169.929 429.475 169.767 429.93 169.65C430.399 169.518 430.956 169.452 431.602 169.452C432.35 169.452 433.046 169.562 433.692 169.782C434.337 170.002 434.902 170.317 435.386 170.728C435.87 171.124 436.244 171.615 436.508 172.202C436.786 172.789 436.926 173.449 436.926 174.182C436.926 174.945 436.786 175.641 436.508 176.272C436.244 176.888 435.87 177.423 435.386 177.878C434.902 178.318 434.322 178.663 433.648 178.912C432.973 179.147 432.232 179.264 431.426 179.264C430.326 179.264 429.306 179.037 428.368 178.582C427.444 178.113 426.63 177.526 425.926 176.822L427.07 175.568C427.744 176.228 428.441 176.749 429.16 177.13C429.893 177.497 430.656 177.68 431.448 177.68C431.99 177.68 432.489 177.599 432.944 177.438C433.413 177.262 433.809 177.02 434.132 176.712C434.454 176.404 434.704 176.045 434.88 175.634C435.07 175.209 435.166 174.747 435.166 174.248C435.166 173.764 435.07 173.324 434.88 172.928C434.704 172.532 434.447 172.195 434.11 171.916C433.772 171.623 433.369 171.395 432.9 171.234C432.43 171.073 431.91 170.992 431.338 170.992C430.678 170.992 430.084 171.08 429.556 171.256C429.042 171.417 428.558 171.623 428.104 171.872L426.938 171.102ZM457.542 179H455.848V176.712C455.614 177.049 455.35 177.372 455.056 177.68C454.778 177.988 454.462 178.259 454.11 178.494C453.758 178.729 453.362 178.912 452.922 179.044C452.497 179.176 452.02 179.242 451.492 179.242C450.803 179.242 450.136 179.11 449.49 178.846C448.845 178.582 448.266 178.201 447.752 177.702C447.239 177.189 446.828 176.565 446.52 175.832C446.212 175.099 446.058 174.263 446.058 173.324C446.058 172.385 446.212 171.549 446.52 170.816C446.828 170.083 447.239 169.467 447.752 168.968C448.266 168.455 448.845 168.066 449.49 167.802C450.136 167.523 450.803 167.384 451.492 167.384C452.02 167.384 452.504 167.45 452.944 167.582C453.384 167.714 453.78 167.89 454.132 168.11C454.484 168.33 454.8 168.587 455.078 168.88C455.372 169.173 455.628 169.481 455.848 169.804V162.94H457.542V179ZM455.914 173.302C455.914 172.642 455.797 172.041 455.562 171.498C455.342 170.955 455.034 170.493 454.638 170.112C454.257 169.731 453.817 169.437 453.318 169.232C452.834 169.012 452.328 168.902 451.8 168.902C451.243 168.902 450.722 169.005 450.238 169.21C449.754 169.401 449.329 169.687 448.962 170.068C448.61 170.435 448.324 170.897 448.104 171.454C447.899 171.997 447.796 172.613 447.796 173.302C447.796 173.977 447.899 174.585 448.104 175.128C448.324 175.671 448.618 176.14 448.984 176.536C449.351 176.917 449.776 177.211 450.26 177.416C450.744 177.621 451.258 177.724 451.8 177.724C452.328 177.724 452.834 177.621 453.318 177.416C453.817 177.196 454.257 176.895 454.638 176.514C455.034 176.133 455.342 175.671 455.562 175.128C455.797 174.571 455.914 173.962 455.914 173.302ZM465.442 168.968C464.767 168.968 464.151 169.049 463.594 169.21C463.051 169.357 462.516 169.555 461.988 169.804L461.482 168.418C462.112 168.125 462.75 167.897 463.396 167.736C464.041 167.56 464.782 167.472 465.618 167.472C467.172 167.472 468.368 167.861 469.204 168.638C470.04 169.401 470.458 170.537 470.458 172.048V179H468.83V177.284C468.434 177.797 467.898 178.252 467.224 178.648C466.564 179.044 465.728 179.242 464.716 179.242C464.188 179.242 463.667 179.169 463.154 179.022C462.655 178.875 462.2 178.655 461.79 178.362C461.394 178.054 461.071 177.68 460.822 177.24C460.587 176.8 460.47 176.279 460.47 175.678C460.47 175.077 460.587 174.549 460.822 174.094C461.056 173.625 461.386 173.236 461.812 172.928C462.252 172.62 462.765 172.385 463.352 172.224C463.953 172.063 464.613 171.982 465.332 171.982C466.065 171.982 466.703 172.026 467.246 172.114C467.788 172.202 468.316 172.319 468.83 172.466V172.07C468.83 171.043 468.529 170.273 467.928 169.76C467.341 169.232 466.512 168.968 465.442 168.968ZM465.508 173.236C464.437 173.236 463.616 173.449 463.044 173.874C462.472 174.299 462.186 174.879 462.186 175.612C462.186 175.979 462.259 176.301 462.406 176.58C462.567 176.859 462.78 177.101 463.044 177.306C463.308 177.497 463.608 177.643 463.946 177.746C464.298 177.849 464.664 177.9 465.046 177.9C465.574 177.9 466.065 177.827 466.52 177.68C466.989 177.519 467.392 177.306 467.73 177.042C468.082 176.763 468.353 176.441 468.544 176.074C468.749 175.693 468.852 175.275 468.852 174.82V173.72C468.426 173.603 467.935 173.493 467.378 173.39C466.835 173.287 466.212 173.236 465.508 173.236ZM483.956 167.626L479.182 179.374C478.698 180.547 478.155 181.376 477.554 181.86C476.967 182.344 476.249 182.586 475.398 182.586C474.929 182.586 474.503 182.535 474.122 182.432C473.741 182.344 473.359 182.205 472.978 182.014L473.55 180.672C473.829 180.819 474.1 180.921 474.364 180.98C474.643 181.053 474.965 181.09 475.332 181.09C475.845 181.09 476.278 180.936 476.63 180.628C476.982 180.32 477.327 179.763 477.664 178.956L472.494 167.626H474.364L478.5 177.108L482.152 167.626H483.956ZM494.016 175.81C494.016 176.353 493.906 176.837 493.686 177.262C493.481 177.673 493.195 178.025 492.828 178.318C492.476 178.611 492.051 178.839 491.552 179C491.068 179.147 490.54 179.22 489.968 179.22C489.147 179.22 488.318 179.073 487.482 178.78C486.646 178.472 485.906 178.061 485.26 177.548L486.118 176.338C486.734 176.807 487.372 177.167 488.032 177.416C488.707 177.665 489.382 177.79 490.056 177.79C490.746 177.79 491.31 177.629 491.75 177.306C492.19 176.983 492.41 176.543 492.41 175.986V175.942C492.41 175.663 492.33 175.421 492.168 175.216C492.022 175.011 491.816 174.835 491.552 174.688C491.288 174.527 490.98 174.387 490.628 174.27C490.291 174.153 489.939 174.043 489.572 173.94C489.132 173.808 488.685 173.669 488.23 173.522C487.79 173.361 487.387 173.163 487.02 172.928C486.668 172.693 486.375 172.4 486.14 172.048C485.92 171.696 485.81 171.256 485.81 170.728V170.684C485.81 170.2 485.906 169.76 486.096 169.364C486.287 168.953 486.551 168.609 486.888 168.33C487.24 168.037 487.651 167.817 488.12 167.67C488.604 167.509 489.125 167.428 489.682 167.428C490.386 167.428 491.098 167.545 491.816 167.78C492.535 168 493.188 168.301 493.774 168.682L493.004 169.958C492.476 169.621 491.919 169.357 491.332 169.166C490.76 168.961 490.196 168.858 489.638 168.858C488.964 168.858 488.428 169.019 488.032 169.342C487.636 169.65 487.438 170.039 487.438 170.508V170.552C487.438 170.816 487.519 171.051 487.68 171.256C487.842 171.447 488.054 171.615 488.318 171.762C488.597 171.909 488.912 172.041 489.264 172.158C489.616 172.275 489.983 172.393 490.364 172.51C490.804 172.642 491.237 172.789 491.662 172.95C492.102 173.111 492.498 173.317 492.85 173.566C493.202 173.815 493.481 174.116 493.686 174.468C493.906 174.82 494.016 175.253 494.016 175.766V175.81ZM507.873 168.968C507.199 168.968 506.583 169.049 506.025 169.21C505.483 169.357 504.947 169.555 504.419 169.804L503.913 168.418C504.544 168.125 505.182 167.897 505.827 167.736C506.473 167.56 507.213 167.472 508.049 167.472C509.604 167.472 510.799 167.861 511.635 168.638C512.471 169.401 512.889 170.537 512.889 172.048V179H511.261V177.284C510.865 177.797 510.33 178.252 509.655 178.648C508.995 179.044 508.159 179.242 507.147 179.242C506.619 179.242 506.099 179.169 505.585 179.022C505.087 178.875 504.632 178.655 504.221 178.362C503.825 178.054 503.503 177.68 503.253 177.24C503.019 176.8 502.901 176.279 502.901 175.678C502.901 175.077 503.019 174.549 503.253 174.094C503.488 173.625 503.818 173.236 504.243 172.928C504.683 172.62 505.197 172.385 505.783 172.224C506.385 172.063 507.045 171.982 507.763 171.982C508.497 171.982 509.135 172.026 509.677 172.114C510.22 172.202 510.748 172.319 511.261 172.466V172.07C511.261 171.043 510.961 170.273 510.359 169.76C509.773 169.232 508.944 168.968 507.873 168.968ZM507.939 173.236C506.869 173.236 506.047 173.449 505.475 173.874C504.903 174.299 504.617 174.879 504.617 175.612C504.617 175.979 504.691 176.301 504.837 176.58C504.999 176.859 505.211 177.101 505.475 177.306C505.739 177.497 506.04 177.643 506.377 177.746C506.729 177.849 507.096 177.9 507.477 177.9C508.005 177.9 508.497 177.827 508.951 177.68C509.421 177.519 509.824 177.306 510.161 177.042C510.513 176.763 510.785 176.441 510.975 176.074C511.181 175.693 511.283 175.275 511.283 174.82V173.72C510.858 173.603 510.367 173.493 509.809 173.39C509.267 173.287 508.643 173.236 507.939 173.236ZM527.323 177.02C527.323 177.944 527.184 178.751 526.905 179.44C526.641 180.129 526.253 180.701 525.739 181.156C525.241 181.625 524.632 181.977 523.913 182.212C523.209 182.447 522.417 182.564 521.537 182.564C520.584 182.564 519.675 182.432 518.809 182.168C517.944 181.904 517.13 181.508 516.367 180.98L517.137 179.66C517.797 180.129 518.487 180.489 519.205 180.738C519.924 180.987 520.694 181.112 521.515 181.112C522.777 181.112 523.781 180.767 524.529 180.078C525.277 179.403 525.651 178.399 525.651 177.064V175.722C525.153 176.382 524.544 176.947 523.825 177.416C523.107 177.885 522.227 178.12 521.185 178.12C520.496 178.12 519.829 178.003 519.183 177.768C518.553 177.519 517.988 177.167 517.489 176.712C516.991 176.243 516.587 175.678 516.279 175.018C515.986 174.358 515.839 173.61 515.839 172.774C515.839 171.938 515.986 171.19 516.279 170.53C516.587 169.855 516.991 169.291 517.489 168.836C517.988 168.367 518.56 168.007 519.205 167.758C519.851 167.509 520.511 167.384 521.185 167.384C521.713 167.384 522.197 167.45 522.637 167.582C523.092 167.699 523.495 167.861 523.847 168.066C524.214 168.271 524.544 168.513 524.837 168.792C525.131 169.071 525.395 169.364 525.629 169.672V167.626H527.323V177.02ZM525.695 172.752C525.695 172.165 525.578 171.637 525.343 171.168C525.109 170.684 524.793 170.273 524.397 169.936C524.016 169.599 523.576 169.342 523.077 169.166C522.579 168.975 522.058 168.88 521.515 168.88C520.973 168.88 520.459 168.968 519.975 169.144C519.506 169.32 519.088 169.577 518.721 169.914C518.369 170.251 518.091 170.662 517.885 171.146C517.68 171.615 517.577 172.143 517.577 172.73C517.577 173.317 517.68 173.852 517.885 174.336C518.105 174.805 518.391 175.216 518.743 175.568C519.11 175.905 519.528 176.169 519.997 176.36C520.481 176.536 520.987 176.624 521.515 176.624C522.058 176.624 522.579 176.536 523.077 176.36C523.576 176.169 524.016 175.905 524.397 175.568C524.793 175.231 525.109 174.827 525.343 174.358C525.578 173.874 525.695 173.339 525.695 172.752ZM542.263 173.302C542.263 174.109 542.109 174.879 541.801 175.612C541.507 176.331 541.097 176.961 540.569 177.504C540.041 178.047 539.41 178.479 538.677 178.802C537.943 179.11 537.151 179.264 536.301 179.264C535.45 179.264 534.665 179.11 533.947 178.802C533.228 178.479 532.605 178.054 532.077 177.526C531.549 176.983 531.138 176.353 530.845 175.634C530.551 174.915 530.405 174.153 530.405 173.346C530.405 172.539 530.551 171.777 530.845 171.058C531.138 170.325 531.549 169.687 532.077 169.144C532.605 168.601 533.228 168.176 533.947 167.868C534.68 167.545 535.479 167.384 536.345 167.384C537.195 167.384 537.98 167.545 538.699 167.868C539.432 168.176 540.063 168.601 540.591 169.144C541.119 169.672 541.529 170.295 541.823 171.014C542.116 171.733 542.263 172.495 542.263 173.302ZM540.525 173.346C540.525 172.73 540.415 172.151 540.195 171.608C539.989 171.065 539.696 170.596 539.315 170.2C538.933 169.789 538.486 169.467 537.973 169.232C537.459 168.997 536.902 168.88 536.301 168.88C535.685 168.88 535.12 168.997 534.607 169.232C534.093 169.452 533.653 169.767 533.287 170.178C532.935 170.574 532.656 171.043 532.451 171.586C532.245 172.114 532.143 172.686 532.143 173.302C532.143 173.918 532.245 174.497 532.451 175.04C532.671 175.583 532.964 176.052 533.331 176.448C533.712 176.844 534.159 177.159 534.673 177.394C535.186 177.629 535.743 177.746 536.345 177.746C536.961 177.746 537.525 177.636 538.039 177.416C538.552 177.181 538.992 176.866 539.359 176.47C539.725 176.074 540.011 175.612 540.217 175.084C540.422 174.541 540.525 173.962 540.525 173.346Z" fill="#474747"/>
<defs>
<filter id="filter0_dddddd_321_501" x="404.96" y="44.96" width="20.08" height="110.08" filterUnits="userSpaceOnUse" color-interpolation-filters="sRGB">
<feFlood flood-opacity="0" result="BackgroundImageFix"/>
<feColorMatrix in="SourceAlpha" type="matrix" values="0 0 0 0 0 0 0 0 0 0 0 0 0 0 0 0 0 0 127 0" result="hardAlpha"/>
<feOffset/>
<feGaussianBlur stdDeviation="0.06"/>
<feColorMatrix type="matrix" values="0 0 0 0 0.87451 0 0 0 0 0.321569 0 0 0 0 0.662745 0 0 0 1 0"/>
<feBlend mode="normal" in2="BackgroundImageFix" result="effect1_dropShadow_321_501"/>
<feColorMatrix in="SourceAlpha" type="matrix" values="0 0 0 0 0 0 0 0 0 0 0 0 0 0 0 0 0 0 127 0" result="hardAlpha"/>
<feOffset/>
<feGaussianBlur stdDeviation="0.12"/>
<feColorMatrix type="matrix" values="0 0 0 0 0.87451 0 0 0 0 0.321569 0 0 0 0 0.662745 0 0 0 1 0"/>
<feBlend mode="normal" in2="effect1_dropShadow_321_501" result="effect2_dropShadow_321_501"/>
<feColorMatrix in="SourceAlpha" type="matrix" values="0 0 0 0 0 0 0 0 0 0 0 0 0 0 0 0 0 0 127 0" result="hardAlpha"/>
<feOffset/>
<feGaussianBlur stdDeviation="0.42"/>
<feColorMatrix type="matrix" values="0 0 0 0 0.87451 0 0 0 0 0.321569 0 0 0 0 0.662745 0 0 0 1 0"/>
<feBlend mode="normal" in2="effect2_dropShadow_321_501" result="effect3_dropShadow_321_501"/>
<feColorMatrix in="SourceAlpha" type="matrix" values="0 0 0 0 0 0 0 0 0 0 0 0 0 0 0 0 0 0 127 0" result="hardAlpha"/>
<feOffset/>
<feGaussianBlur stdDeviation="0.84"/>
<feColorMatrix type="matrix" values="0 0 0 0 0.87451 0 0 0 0 0.321569 0 0 0 0 0.662745 0 0 0 1 0"/>
<feBlend mode="normal" in2="effect3_dropShadow_321_501" result="effect4_dropShadow_321_501"/>
<feColorMatrix in="SourceAlpha" type="matrix" values="0 0 0 0 0 0 0 0 0 0 0 0 0 0 0 0 0 0 127 0" result="hardAlpha"/>
<feOffset/>
<feGaussianBlur stdDeviation="1.44"/>
<feColorMatrix type="matrix" values="0 0 0 0 0.87451 0 0 0 0 0.321569 0 0 0 0 0.662745 0 0 0 1 0"/>
<feBlend mode="normal" in2="effect4_dropShadow_321_501" result="effect5_dropShadow_321_501"/>
<feColorMatrix in="SourceAlpha" type="matrix" values="0 0 0 0 0 0 0 0 0 0 0 0 0 0 0 0 0 0 127 0" result="hardAlpha"/>
<feOffset/>
<feGaussianBlur stdDeviation="2.52"/>
<feColorMatrix type="matrix" values="0 0 0 0 0.87451 0 0 0 0 0.321569 0 0 0 0 0.662745 0 0 0 1 0"/>
<feBlend mode="normal" in2="effect5_dropShadow_321_501" result="effect6_dropShadow_321_501"/>
<feBlend mode="normal" in="SourceGraphic" in2="effect6_dropShadow_321_501" result="shape"/>
</filter>
<filter id="filter1_dddddd_321_501" x="434.96" y="44.96" width="20.08" height="110.08" filterUnits="userSpaceOnUse" color-interpolation-filters="sRGB">
<feFlood flood-opacity="0" result="BackgroundImageFix"/>
<feColorMatrix in="SourceAlpha" type="matrix" values="0 0 0 0 0 0 0 0 0 0 0 0 0 0 0 0 0 0 127 0" result="hardAlpha"/>
<feOffset/>
<feGaussianBlur stdDeviation="0.06"/>
<feColorMatrix type="matrix" values="0 0 0 0 0.87451 0 0 0 0 0.321569 0 0 0 0 0.662745 0 0 0 1 0"/>
<feBlend mode="normal" in2="BackgroundImageFix" result="effect1_dropShadow_321_501"/>
<feColorMatrix in="SourceAlpha" type="matrix" values="0 0 0 0 0 0 0 0 0 0 0 0 0 0 0 0 0 0 127 0" result="hardAlpha"/>
<feOffset/>
<feGaussianBlur stdDeviation="0.12"/>
<feColorMatrix type="matrix" values="0 0 0 0 0.87451 0 0 0 0 0.321569 0 0 0 0 0.662745 0 0 0 1 0"/>
<feBlend mode="normal" in2="effect1_dropShadow_321_501" result="effect2_dropShadow_321_501"/>
<feColorMatrix in="SourceAlpha" type="matrix" values="0 0 0 0 0 0 0 0 0 0 0 0 0 0 0 0 0 0 127 0" result="hardAlpha"/>
<feOffset/>
<feGaussianBlur stdDeviation="0.42"/>
<feColorMatrix type="matrix" values="0 0 0 0 0.87451 0 0 0 0 0.321569 0 0 0 0 0.662745 0 0 0 1 0"/>
<feBlend mode="normal" in2="effect2_dropShadow_321_501" result="effect3_dropShadow_321_501"/>
<feColorMatrix in="SourceAlpha" type="matrix" values="0 0 0 0 0 0 0 0 0 0 0 0 0 0 0 0 0 0 127 0" result="hardAlpha"/>
<feOffset/>
<feGaussianBlur stdDeviation="0.84"/>
<feColorMatrix type="matrix" values="0 0 0 0 0.87451 0 0 0 0 0.321569 0 0 0 0 0.662745 0 0 0 1 0"/>
<feBlend mode="normal" in2="effect3_dropShadow_321_501" result="effect4_dropShadow_321_501"/>
<feColorMatrix in="SourceAlpha" type="matrix" values="0 0 0 0 0 0 0 0 0 0 0 0 0 0 0 0 0 0 127 0" result="hardAlpha"/>
<feOffset/>
<feGaussianBlur stdDeviation="1.44"/>
<feColorMatrix type="matrix" values="0 0 0 0 0.87451 0 0 0 0 0.321569 0 0 0 0 0.662745 0 0 0 1 0"/>
<feBlend mode="normal" in2="effect4_dropShadow_321_501" result="effect5_dropShadow_321_501"/>
<feColorMatrix in="SourceAlpha" type="matrix" values="0 0 0 0 0 0 0 0 0 0 0 0 0 0 0 0 0 0 127 0" result="hardAlpha"/>
<feOffset/>
<feGaussianBlur stdDeviation="2.52"/>
<feColorMatrix type="matrix" values="0 0 0 0 0.87451 0 0 0 0 0.321569 0 0 0 0 0.662745 0 0 0 1 0"/>
<feBlend mode="normal" in2="effect5_dropShadow_321_501" result="effect6_dropShadow_321_501"/>
<feBlend mode="normal" in="SourceGraphic" in2="effect6_dropShadow_321_501" result="shape"/>
</filter>
<filter id="filter2_dddddd_321_501" x="464.96" y="44.96" width="20.08" height="110.08" filterUnits="userSpaceOnUse" color-interpolation-filters="sRGB">
<feFlood flood-opacity="0" result="BackgroundImageFix"/>
<feColorMatrix in="SourceAlpha" type="matrix" values="0 0 0 0 0 0 0 0 0 0 0 0 0 0 0 0 0 0 127 0" result="hardAlpha"/>
<feOffset/>
<feGaussianBlur stdDeviation="0.06"/>
<feColorMatrix type="matrix" values="0 0 0 0 0.87451 0 0 0 0 0.321569 0 0 0 0 0.662745 0 0 0 1 0"/>
<feBlend mode="normal" in2="BackgroundImageFix" result="effect1_dropShadow_321_501"/>
<feColorMatrix in="SourceAlpha" type="matrix" values="0 0 0 0 0 0 0 0 0 0 0 0 0 0 0 0 0 0 127 0" result="hardAlpha"/>
<feOffset/>
<feGaussianBlur stdDeviation="0.12"/>
<feColorMatrix type="matrix" values="0 0 0 0 0.87451 0 0 0 0 0.321569 0 0 0 0 0.662745 0 0 0 1 0"/>
<feBlend mode="normal" in2="effect1_dropShadow_321_501" result="effect2_dropShadow_321_501"/>
<feColorMatrix in="SourceAlpha" type="matrix" values="0 0 0 0 0 0 0 0 0 0 0 0 0 0 0 0 0 0 127 0" result="hardAlpha"/>
<feOffset/>
<feGaussianBlur stdDeviation="0.42"/>
<feColorMatrix type="matrix" values="0 0 0 0 0.87451 0 0 0 0 0.321569 0 0 0 0 0.662745 0 0 0 1 0"/>
<feBlend mode="normal" in2="effect2_dropShadow_321_501" result="effect3_dropShadow_321_501"/>
<feColorMatrix in="SourceAlpha" type="matrix" values="0 0 0 0 0 0 0 0 0 0 0 0 0 0 0 0 0 0 127 0" result="hardAlpha"/>
<feOffset/>
<feGaussianBlur stdDeviation="0.84"/>
<feColorMatrix type="matrix" values="0 0 0 0 0.87451 0 0 0 0 0.321569 0 0 0 0 0.662745 0 0 0 1 0"/>
<feBlend mode="normal" in2="effect3_dropShadow_321_501" result="effect4_dropShadow_321_501"/>
<feColorMatrix in="SourceAlpha" type="matrix" values="0 0 0 0 0 0 0 0 0 0 0 0 0 0 0 0 0 0 127 0" result="hardAlpha"/>
<feOffset/>
<feGaussianBlur stdDeviation="1.44"/>
<feColorMatrix type="matrix" values="0 0 0 0 0.87451 0 0 0 0 0.321569 0 0 0 0 0.662745 0 0 0 1 0"/>
<feBlend mode="normal" in2="effect4_dropShadow_321_501" result="effect5_dropShadow_321_501"/>
<feColorMatrix in="SourceAlpha" type="matrix" values="0 0 0 0 0 0 0 0 0 0 0 0 0 0 0 0 0 0 127 0" result="hardAlpha"/>
<feOffset/>
<feGaussianBlur stdDeviation="2.52"/>
<feColorMatrix type="matrix" values="0 0 0 0 0.87451 0 0 0 0 0.321569 0 0 0 0 0.662745 0 0 0 1 0"/>
<feBlend mode="normal" in2="effect5_dropShadow_321_501" result="effect6_dropShadow_321_501"/>
<feBlend mode="normal" in="SourceGraphic" in2="effect6_dropShadow_321_501" result="shape"/>
</filter>
<filter id="filter3_dddddd_321_501" x="494.96" y="44.96" width="20.08" height="110.08" filterUnits="userSpaceOnUse" color-interpolation-filters="sRGB">
<feFlood flood-opacity="0" result="BackgroundImageFix"/>
<feColorMatrix in="SourceAlpha" type="matrix" values="0 0 0 0 0 0 0 0 0 0 0 0 0 0 0 0 0 0 127 0" result="hardAlpha"/>
<feOffset/>
<feGaussianBlur stdDeviation="0.06"/>
<feColorMatrix type="matrix" values="0 0 0 0 0.87451 0 0 0 0 0.321569 0 0 0 0 0.662745 0 0 0 1 0"/>
<feBlend mode="normal" in2="BackgroundImageFix" result="effect1_dropShadow_321_501"/>
<feColorMatrix in="SourceAlpha" type="matrix" values="0 0 0 0 0 0 0 0 0 0 0 0 0 0 0 0 0 0 127 0" result="hardAlpha"/>
<feOffset/>
<feGaussianBlur stdDeviation="0.12"/>
<feColorMatrix type="matrix" values="0 0 0 0 0.87451 0 0 0 0 0.321569 0 0 0 0 0.662745 0 0 0 1 0"/>
<feBlend mode="normal" in2="effect1_dropShadow_321_501" result="effect2_dropShadow_321_501"/>
<feColorMatrix in="SourceAlpha" type="matrix" values="0 0 0 0 0 0 0 0 0 0 0 0 0 0 0 0 0 0 127 0" result="hardAlpha"/>
<feOffset/>
<feGaussianBlur stdDeviation="0.42"/>
<feColorMatrix type="matrix" values="0 0 0 0 0.87451 0 0 0 0 0.321569 0 0 0 0 0.662745 0 0 0 1 0"/>
<feBlend mode="normal" in2="effect2_dropShadow_321_501" result="effect3_dropShadow_321_501"/>
<feColorMatrix in="SourceAlpha" type="matrix" values="0 0 0 0 0 0 0 0 0 0 0 0 0 0 0 0 0 0 127 0" result="hardAlpha"/>
<feOffset/>
<feGaussianBlur stdDeviation="0.84"/>
<feColorMatrix type="matrix" values="0 0 0 0 0.87451 0 0 0 0 0.321569 0 0 0 0 0.662745 0 0 0 1 0"/>
<feBlend mode="normal" in2="effect3_dropShadow_321_501" result="effect4_dropShadow_321_501"/>
<feColorMatrix in="SourceAlpha" type="matrix" values="0 0 0 0 0 0 0 0 0 0 0 0 0 0 0 0 0 0 127 0" result="hardAlpha"/>
<feOffset/>
<feGaussianBlur stdDeviation="1.44"/>
<feColorMatrix type="matrix" values="0 0 0 0 0.87451 0 0 0 0 0.321569 0 0 0 0 0.662745 0 0 0 1 0"/>
<feBlend mode="normal" in2="effect4_dropShadow_321_501" result="effect5_dropShadow_321_501"/>
<feColorMatrix in="SourceAlpha" type="matrix" values="0 0 0 0 0 0 0 0 0 0 0 0 0 0 0 0 0 0 127 0" result="hardAlpha"/>
<feOffset/>
<feGaussianBlur stdDeviation="2.52"/>
<feColorMatrix type="matrix" values="0 0 0 0 0.87451 0 0 0 0 0.321569 0 0 0 0 0.662745 0 0 0 1 0"/>
<feBlend mode="normal" in2="effect5_dropShadow_321_501" result="effect6_dropShadow_321_501"/>
<feBlend mode="normal" in="SourceGraphic" in2="effect6_dropShadow_321_501" result="shape"/>
</filter>
<filter id="filter4_dddddd_321_501" x="524.96" y="44.96" width="20.08" height="110.08" filterUnits="userSpaceOnUse" color-interpolation-filters="sRGB">
<feFlood flood-opacity="0" result="BackgroundImageFix"/>
<feColorMatrix in="SourceAlpha" type="matrix" values="0 0 0 0 0 0 0 0 0 0 0 0 0 0 0 0 0 0 127 0" result="hardAlpha"/>
<feOffset/>
<feGaussianBlur stdDeviation="0.06"/>
<feColorMatrix type="matrix" values="0 0 0 0 0.87451 0 0 0 0 0.321569 0 0 0 0 0.662745 0 0 0 1 0"/>
<feBlend mode="normal" in2="BackgroundImageFix" result="effect1_dropShadow_321_501"/>
<feColorMatrix in="SourceAlpha" type="matrix" values="0 0 0 0 0 0 0 0 0 0 0 0 0 0 0 0 0 0 127 0" result="hardAlpha"/>
<feOffset/>
<feGaussianBlur stdDeviation="0.12"/>
<feColorMatrix type="matrix" values="0 0 0 0 0.87451 0 0 0 0 0.321569 0 0 0 0 0.662745 0 0 0 1 0"/>
<feBlend mode="normal" in2="effect1_dropShadow_321_501" result="effect2_dropShadow_321_501"/>
<feColorMatrix in="SourceAlpha" type="matrix" values="0 0 0 0 0 0 0 0 0 0 0 0 0 0 0 0 0 0 127 0" result="hardAlpha"/>
<feOffset/>
<feGaussianBlur stdDeviation="0.42"/>
<feColorMatrix type="matrix" values="0 0 0 0 0.87451 0 0 0 0 0.321569 0 0 0 0 0.662745 0 0 0 1 0"/>
<feBlend mode="normal" in2="effect2_dropShadow_321_501" result="effect3_dropShadow_321_501"/>
<feColorMatrix in="SourceAlpha" type="matrix" values="0 0 0 0 0 0 0 0 0 0 0 0 0 0 0 0 0 0 127 0" result="hardAlpha"/>
<feOffset/>
<feGaussianBlur stdDeviation="0.84"/>
<feColorMatrix type="matrix" values="0 0 0 0 0.87451 0 0 0 0 0.321569 0 0 0 0 0.662745 0 0 0 1 0"/>
<feBlend mode="normal" in2="effect3_dropShadow_321_501" result="effect4_dropShadow_321_501"/>
<feColorMatrix in="SourceAlpha" type="matrix" values="0 0 0 0 0 0 0 0 0 0 0 0 0 0 0 0 0 0 127 0" result="hardAlpha"/>
<feOffset/>
<feGaussianBlur stdDeviation="1.44"/>
<feColorMatrix type="matrix" values="0 0 0 0 0.87451 0 0 0 0 0.321569 0 0 0 0 0.662745 0 0 0 1 0"/>
<feBlend mode="normal" in2="effect4_dropShadow_321_501" result="effect5_dropShadow_321_501"/>
<feColorMatrix in="SourceAlpha" type="matrix" values="0 0 0 0 0 0 0 0 0 0 0 0 0 0 0 0 0 0 127 0" result="hardAlpha"/>
<feOffset/>
<feGaussianBlur stdDeviation="2.52"/>
<feColorMatrix type="matrix" values="0 0 0 0 0.87451 0 0 0 0 0.321569 0 0 0 0 0.662745 0 0 0 1 0"/>
<feBlend mode="normal" in2="effect5_dropShadow_321_501" result="effect6_dropShadow_321_501"/>
<feBlend mode="normal" in="SourceGraphic" in2="effect6_dropShadow_321_501" result="shape"/>
</filter>
<filter id="filter5_dddddd_321_501" x="554.96" y="44.96" width="20.08" height="110.08" filterUnits="userSpaceOnUse" color-interpolation-filters="sRGB">
<feFlood flood-opacity="0" result="BackgroundImageFix"/>
<feColorMatrix in="SourceAlpha" type="matrix" values="0 0 0 0 0 0 0 0 0 0 0 0 0 0 0 0 0 0 127 0" result="hardAlpha"/>
<feOffset/>
<feGaussianBlur stdDeviation="0.06"/>
<feColorMatrix type="matrix" values="0 0 0 0 0.87451 0 0 0 0 0.321569 0 0 0 0 0.662745 0 0 0 1 0"/>
<feBlend mode="normal" in2="BackgroundImageFix" result="effect1_dropShadow_321_501"/>
<feColorMatrix in="SourceAlpha" type="matrix" values="0 0 0 0 0 0 0 0 0 0 0 0 0 0 0 0 0 0 127 0" result="hardAlpha"/>
<feOffset/>
<feGaussianBlur stdDeviation="0.12"/>
<feColorMatrix type="matrix" values="0 0 0 0 0.87451 0 0 0 0 0.321569 0 0 0 0 0.662745 0 0 0 1 0"/>
<feBlend mode="normal" in2="effect1_dropShadow_321_501" result="effect2_dropShadow_321_501"/>
<feColorMatrix in="SourceAlpha" type="matrix" values="0 0 0 0 0 0 0 0 0 0 0 0 0 0 0 0 0 0 127 0" result="hardAlpha"/>
<feOffset/>
<feGaussianBlur stdDeviation="0.42"/>
<feColorMatrix type="matrix" values="0 0 0 0 0.87451 0 0 0 0 0.321569 0 0 0 0 0.662745 0 0 0 1 0"/>
<feBlend mode="normal" in2="effect2_dropShadow_321_501" result="effect3_dropShadow_321_501"/>
<feColorMatrix in="SourceAlpha" type="matrix" values="0 0 0 0 0 0 0 0 0 0 0 0 0 0 0 0 0 0 127 0" result="hardAlpha"/>
<feOffset/>
<feGaussianBlur stdDeviation="0.84"/>
<feColorMatrix type="matrix" values="0 0 0 0 0.87451 0 0 0 0 0.321569 0 0 0 0 0.662745 0 0 0 1 0"/>
<feBlend mode="normal" in2="effect3_dropShadow_321_501" result="effect4_dropShadow_321_501"/>
<feColorMatrix in="SourceAlpha" type="matrix" values="0 0 0 0 0 0 0 0 0 0 0 0 0 0 0 0 0 0 127 0" result="hardAlpha"/>
<feOffset/>
<feGaussianBlur stdDeviation="1.44"/>
<feColorMatrix type="matrix" values="0 0 0 0 0.87451 0 0 0 0 0.321569 0 0 0 0 0.662745 0 0 0 1 0"/>
<feBlend mode="normal" in2="effect4_dropShadow_321_501" result="effect5_dropShadow_321_501"/>
<feColorMatrix in="SourceAlpha" type="matrix" values="0 0 0 0 0 0 0 0 0 0 0 0 0 0 0 0 0 0 127 0" result="hardAlpha"/>
<feOffset/>
<feGaussianBlur stdDeviation="2.52"/>
<feColorMatrix type="matrix" values="0 0 0 0 0.87451 0 0 0 0 0.321569 0 0 0 0 0.662745 0 0 0 1 0"/>
<feBlend mode="normal" in2="effect5_dropShadow_321_501" result="effect6_dropShadow_321_501"/>
<feBlend mode="normal" in="SourceGraphic" in2="effect6_dropShadow_321_501" result="shape"/>
</filter>
<filter id="filter6_dddddd_321_501" x="584.96" y="44.96" width="20.08" height="110.08" filterUnits="userSpaceOnUse" color-interpolation-filters="sRGB">
<feFlood flood-opacity="0" result="BackgroundImageFix"/>
<feColorMatrix in="SourceAlpha" type="matrix" values="0 0 0 0 0 0 0 0 0 0 0 0 0 0 0 0 0 0 127 0" result="hardAlpha"/>
<feOffset/>
<feGaussianBlur stdDeviation="0.06"/>
<feColorMatrix type="matrix" values="0 0 0 0 0.87451 0 0 0 0 0.321569 0 0 0 0 0.662745 0 0 0 1 0"/>
<feBlend mode="normal" in2="BackgroundImageFix" result="effect1_dropShadow_321_501"/>
<feColorMatrix in="SourceAlpha" type="matrix" values="0 0 0 0 0 0 0 0 0 0 0 0 0 0 0 0 0 0 127 0" result="hardAlpha"/>
<feOffset/>
<feGaussianBlur stdDeviation="0.12"/>
<feColorMatrix type="matrix" values="0 0 0 0 0.87451 0 0 0 0 0.321569 0 0 0 0 0.662745 0 0 0 1 0"/>
<feBlend mode="normal" in2="effect1_dropShadow_321_501" result="effect2_dropShadow_321_501"/>
<feColorMatrix in="SourceAlpha" type="matrix" values="0 0 0 0 0 0 0 0 0 0 0 0 0 0 0 0 0 0 127 0" result="hardAlpha"/>
<feOffset/>
<feGaussianBlur stdDeviation="0.42"/>
<feColorMatrix type="matrix" values="0 0 0 0 0.87451 0 0 0 0 0.321569 0 0 0 0 0.662745 0 0 0 1 0"/>
<feBlend mode="normal" in2="effect2_dropShadow_321_501" result="effect3_dropShadow_321_501"/>
<feColorMatrix in="SourceAlpha" type="matrix" values="0 0 0 0 0 0 0 0 0 0 0 0 0 0 0 0 0 0 127 0" result="hardAlpha"/>
<feOffset/>
<feGaussianBlur stdDeviation="0.84"/>
<feColorMatrix type="matrix" values="0 0 0 0 0.87451 0 0 0 0 0.321569 0 0 0 0 0.662745 0 0 0 1 0"/>
<feBlend mode="normal" in2="effect3_dropShadow_321_501" result="effect4_dropShadow_321_501"/>
<feColorMatrix in="SourceAlpha" type="matrix" values="0 0 0 0 0 0 0 0 0 0 0 0 0 0 0 0 0 0 127 0" result="hardAlpha"/>
<feOffset/>
<feGaussianBlur stdDeviation="1.44"/>
<feColorMatrix type="matrix" values="0 0 0 0 0.87451 0 0 0 0 0.321569 0 0 0 0 0.662745 0 0 0 1 0"/>
<feBlend mode="normal" in2="effect4_dropShadow_321_501" result="effect5_dropShadow_321_501"/>
<feColorMatrix in="SourceAlpha" type="matrix" values="0 0 0 0 0 0 0 0 0 0 0 0 0 0 0 0 0 0 127 0" result="hardAlpha"/>
<feOffset/>
<feGaussianBlur stdDeviation="2.52"/>
<feColorMatrix type="matrix" values="0 0 0 0 0.87451 0 0 0 0 0.321569 0 0 0 0 0.662745 0 0 0 1 0"/>
<feBlend mode="normal" in2="effect5_dropShadow_321_501" result="effect6_dropShadow_321_501"/>
<feBlend mode="normal" in="SourceGraphic" in2="effect6_dropShadow_321_501" result="shape"/>
</filter>
<filter id="filter7_dddddd_321_501" x="614.96" y="44.96" width="20.08" height="110.08" filterUnits="userSpaceOnUse" color-interpolation-filters="sRGB">
<feFlood flood-opacity="0" result="BackgroundImageFix"/>
<feColorMatrix in="SourceAlpha" type="matrix" values="0 0 0 0 0 0 0 0 0 0 0 0 0 0 0 0 0 0 127 0" result="hardAlpha"/>
<feOffset/>
<feGaussianBlur stdDeviation="0.06"/>
<feColorMatrix type="matrix" values="0 0 0 0 0.87451 0 0 0 0 0.321569 0 0 0 0 0.662745 0 0 0 1 0"/>
<feBlend mode="normal" in2="BackgroundImageFix" result="effect1_dropShadow_321_501"/>
<feColorMatrix in="SourceAlpha" type="matrix" values="0 0 0 0 0 0 0 0 0 0 0 0 0 0 0 0 0 0 127 0" result="hardAlpha"/>
<feOffset/>
<feGaussianBlur stdDeviation="0.12"/>
<feColorMatrix type="matrix" values="0 0 0 0 0.87451 0 0 0 0 0.321569 0 0 0 0 0.662745 0 0 0 1 0"/>
<feBlend mode="normal" in2="effect1_dropShadow_321_501" result="effect2_dropShadow_321_501"/>
<feColorMatrix in="SourceAlpha" type="matrix" values="0 0 0 0 0 0 0 0 0 0 0 0 0 0 0 0 0 0 127 0" result="hardAlpha"/>
<feOffset/>
<feGaussianBlur stdDeviation="0.42"/>
<feColorMatrix type="matrix" values="0 0 0 0 0.87451 0 0 0 0 0.321569 0 0 0 0 0.662745 0 0 0 1 0"/>
<feBlend mode="normal" in2="effect2_dropShadow_321_501" result="effect3_dropShadow_321_501"/>
<feColorMatrix in="SourceAlpha" type="matrix" values="0 0 0 0 0 0 0 0 0 0 0 0 0 0 0 0 0 0 127 0" result="hardAlpha"/>
<feOffset/>
<feGaussianBlur stdDeviation="0.84"/>
<feColorMatrix type="matrix" values="0 0 0 0 0.87451 0 0 0 0 0.321569 0 0 0 0 0.662745 0 0 0 1 0"/>
<feBlend mode="normal" in2="effect3_dropShadow_321_501" result="effect4_dropShadow_321_501"/>
<feColorMatrix in="SourceAlpha" type="matrix" values="0 0 0 0 0 0 0 0 0 0 0 0 0 0 0 0 0 0 127 0" result="hardAlpha"/>
<feOffset/>
<feGaussianBlur stdDeviation="1.44"/>
<feColorMatrix type="matrix" values="0 0 0 0 0.87451 0 0 0 0 0.321569 0 0 0 0 0.662745 0 0 0 1 0"/>
<feBlend mode="normal" in2="effect4_dropShadow_321_501" result="effect5_dropShadow_321_501"/>
<feColorMatrix in="SourceAlpha" type="matrix" values="0 0 0 0 0 0 0 0 0 0 0 0 0 0 0 0 0 0 127 0" result="hardAlpha"/>
<feOffset/>
<feGaussianBlur stdDeviation="2.52"/>
<feColorMatrix type="matrix" values="0 0 0 0 0.87451 0 0 0 0 0.321569 0 0 0 0 0.662745 0 0 0 1 0"/>
<feBlend mode="normal" in2="effect5_dropShadow_321_501" result="effect6_dropShadow_321_501"/>
<feBlend mode="normal" in="SourceGraphic" in2="effect6_dropShadow_321_501" result="shape"/>
</filter>
<filter id="filter8_dddddd_321_501" x="644.96" y="44.96" width="20.08" height="110.08" filterUnits="userSpaceOnUse" color-interpolation-filters="sRGB">
<feFlood flood-opacity="0" result="BackgroundImageFix"/>
<feColorMatrix in="SourceAlpha" type="matrix" values="0 0 0 0 0 0 0 0 0 0 0 0 0 0 0 0 0 0 127 0" result="hardAlpha"/>
<feOffset/>
<feGaussianBlur stdDeviation="0.06"/>
<feColorMatrix type="matrix" values="0 0 0 0 0.87451 0 0 0 0 0.321569 0 0 0 0 0.662745 0 0 0 1 0"/>
<feBlend mode="normal" in2="BackgroundImageFix" result="effect1_dropShadow_321_501"/>
<feColorMatrix in="SourceAlpha" type="matrix" values="0 0 0 0 0 0 0 0 0 0 0 0 0 0 0 0 0 0 127 0" result="hardAlpha"/>
<feOffset/>
<feGaussianBlur stdDeviation="0.12"/>
<feColorMatrix type="matrix" values="0 0 0 0 0.87451 0 0 0 0 0.321569 0 0 0 0 0.662745 0 0 0 1 0"/>
<feBlend mode="normal" in2="effect1_dropShadow_321_501" result="effect2_dropShadow_321_501"/>
<feColorMatrix in="SourceAlpha" type="matrix" values="0 0 0 0 0 0 0 0 0 0 0 0 0 0 0 0 0 0 127 0" result="hardAlpha"/>
<feOffset/>
<feGaussianBlur stdDeviation="0.42"/>
<feColorMatrix type="matrix" values="0 0 0 0 0.87451 0 0 0 0 0.321569 0 0 0 0 0.662745 0 0 0 1 0"/>
<feBlend mode="normal" in2="effect2_dropShadow_321_501" result="effect3_dropShadow_321_501"/>
<feColorMatrix in="SourceAlpha" type="matrix" values="0 0 0 0 0 0 0 0 0 0 0 0 0 0 0 0 0 0 127 0" result="hardAlpha"/>
<feOffset/>
<feGaussianBlur stdDeviation="0.84"/>
<feColorMatrix type="matrix" values="0 0 0 0 0.87451 0 0 0 0 0.321569 0 0 0 0 0.662745 0 0 0 1 0"/>
<feBlend mode="normal" in2="effect3_dropShadow_321_501" result="effect4_dropShadow_321_501"/>
<feColorMatrix in="SourceAlpha" type="matrix" values="0 0 0 0 0 0 0 0 0 0 0 0 0 0 0 0 0 0 127 0" result="hardAlpha"/>
<feOffset/>
<feGaussianBlur stdDeviation="1.44"/>
<feColorMatrix type="matrix" values="0 0 0 0 0.87451 0 0 0 0 0.321569 0 0 0 0 0.662745 0 0 0 1 0"/>
<feBlend mode="normal" in2="effect4_dropShadow_321_501" result="effect5_dropShadow_321_501"/>
<feColorMatrix in="SourceAlpha" type="matrix" values="0 0 0 0 0 0 0 0 0 0 0 0 0 0 0 0 0 0 127 0" result="hardAlpha"/>
<feOffset/>
<feGaussianBlur stdDeviation="2.52"/>
<feColorMatrix type="matrix" values="0 0 0 0 0.87451 0 0 0 0 0.321569 0 0 0 0 0.662745 0 0 0 1 0"/>
<feBlend mode="normal" in2="effect5_dropShadow_321_501" result="effect6_dropShadow_321_501"/>
<feBlend mode="normal" in="SourceGraphic" in2="effect6_dropShadow_321_501" result="shape"/>
</filter>
</defs>
</svg>