<svg width="246" height="36" viewBox="0 0 246 36" fill="none" xmlns="http://www.w3.org/2000/svg">
<rect x="117.5" y="0.5" width="128" height="35" rx="4.5" fill="#282828" stroke="#474747"/>
<path d="M181.396 19.828C181.396 21.184 180.232 22.12 178.612 22.12C177.268 22.12 176.236 21.676 175.228 20.776L175.636 20.308C176.56 21.16 177.412 21.556 178.648 21.556C179.908 21.556 180.772 20.848 180.772 19.888V19.864C180.772 18.976 180.304 18.46 178.396 18.076C176.38 17.668 175.564 16.984 175.564 15.712V15.688C175.564 14.44 176.704 13.48 178.264 13.48C179.488 13.48 180.292 13.816 181.144 14.5L180.748 14.992C179.956 14.308 179.164 14.044 178.24 14.044C177.004 14.044 176.188 14.752 176.188 15.628V15.652C176.188 16.54 176.644 17.08 178.636 17.488C180.58 17.884 181.396 18.58 181.396 19.804V19.828ZM189.179 18.94C189.179 20.656 187.847 22.144 186.023 22.144C184.211 22.144 182.891 20.68 182.891 18.964V18.94C182.891 17.224 184.223 15.736 186.047 15.736C187.859 15.736 189.179 17.2 189.179 18.916V18.94ZM188.543 18.964V18.94C188.543 17.464 187.439 16.288 186.023 16.288C184.571 16.288 183.527 17.476 183.527 18.916V18.94C183.527 20.416 184.631 21.592 186.047 21.592C187.499 21.592 188.543 20.404 188.543 18.964ZM194.287 16.432H194.227C192.811 16.432 191.575 17.5 191.575 19.492V22H190.987V15.88H191.575V17.62C192.055 16.528 193.075 15.736 194.287 15.784V16.432ZM198.828 21.892C198.516 22.036 198.216 22.108 197.832 22.108C196.884 22.108 196.116 21.592 196.116 20.428V16.42H195.228V15.88H196.116V13.924H196.704V15.88H198.852V16.42H196.704V20.368C196.704 21.244 197.22 21.556 197.928 21.556C198.228 21.556 198.48 21.496 198.828 21.34V21.892Z" fill="#E7E7E7"/>
<path d="M224 17L228 21.1143L232 17" stroke="#A4A4A4" stroke-width="1.66667" stroke-linecap="round" stroke-linejoin="round"/>
<path d="M137 23H142V21.3333H137V23ZM137 13V14.6667H152V13H137ZM137 18.8333H147V17.1667H137V18.8333Z" fill="white"/>
<rect x="0.5" y="0.5" width="106" height="35" rx="4.5" fill="#282828" stroke="#474747"/>
<path d="M60.6126 20.68C59.7246 21.556 58.7646 22.144 57.2766 22.144C54.8766 22.144 53.1006 20.236 53.1006 17.824V17.8C53.1006 15.424 54.8766 13.456 57.3006 13.456C58.8006 13.456 59.7006 14.008 60.5646 14.8L60.1206 15.256C59.3886 14.548 58.5486 14.02 57.2886 14.02C55.2726 14.02 53.7486 15.664 53.7486 17.776V17.8C53.7486 19.924 55.2966 21.58 57.3006 21.58C58.5126 21.58 59.3406 21.112 60.1926 20.272L60.6126 20.68ZM62.872 22H62.284V13.24H62.872V22ZM65.3923 19.18C65.5003 20.704 66.5923 21.592 67.7923 21.592C68.7403 21.592 69.3883 21.172 69.8923 20.632L70.3003 20.992C69.6763 21.664 68.9443 22.144 67.7683 22.144C66.1603 22.144 64.7683 20.86 64.7683 18.952V18.928C64.7683 17.152 66.0163 15.736 67.6723 15.736C69.3883 15.736 70.4803 17.128 70.4803 18.94V18.964C70.4803 19.048 70.4803 19.084 70.4683 19.18H65.3923ZM65.3923 18.652H69.8443C69.7603 17.416 69.0523 16.276 67.6483 16.276C66.4363 16.276 65.5003 17.296 65.3923 18.652ZM76.9721 22H76.3961V20.98C75.9761 21.568 75.2201 22.144 74.0561 22.144C72.9161 22.144 71.6921 21.496 71.6921 20.224V20.2C71.6921 18.928 72.7841 18.208 74.3681 18.208C75.2201 18.208 75.8081 18.316 76.3961 18.472V18.208C76.3961 16.972 75.6401 16.336 74.3801 16.336C73.6361 16.336 73.0241 16.54 72.4601 16.828L72.2441 16.312C72.9161 16 73.5761 15.784 74.4161 15.784C75.9881 15.784 76.9721 16.6 76.9721 18.184V22ZM76.4081 19.708V19.012C75.8921 18.88 75.2081 18.736 74.3321 18.736C73.0361 18.736 72.3161 19.312 72.3161 20.164V20.188C72.3161 21.076 73.1561 21.592 74.0921 21.592C75.3401 21.592 76.4081 20.824 76.4081 19.708ZM82.3867 16.432H82.3267C80.9107 16.432 79.6747 17.5 79.6747 19.492V22H79.0867V15.88H79.6747V17.62C80.1547 16.528 81.1747 15.736 82.3867 15.784V16.432Z" fill="#E7E7E7"/>
<path d="M22 19H36V17H22V19ZM20 23H34V21H20V23ZM24 13V15H38V13H24Z" fill="white"/>
<line x1="210.5" y1="11" x2="210.5" y2="26" stroke="#474747"/>
</svg>
